/* XPM */
static char *dummy[]={
"50 50 9 1",
"g c #000000",
"a c #000066",
"b c #0000cc",
"e c #009900",
"d c #666666",
"c c #999999",
"# c #cccccc",
". c #ff00ff",
"f c #ffffff",
"..................................................",
"..................................................",
"..................................................",
"..######a......#######a...........................",
"..#bbbbb#a.....#bbbbaaa...........................",
"..###bbbb#a.....#bbaaaa...........................",
"....##bbbb#a.....#baaa............................",
".....#bbbbb#a....#baa.............................",
".....#bbbbbb#a...#baa.............................",
".....#bbbbbbb#a..#baa.............................",
".....#baa#bbbb#a.#baa.............................",
".....#baa.#bbbb#a#baa.............................",
".....#baa..#bbbb##baa.............................",
".....#baa...#bbbb#baa.............................",
".....#baa....#bbbbbaa.............................",
".....#baa.....#bbbbaa.............................",
".....#baa.#####################################...",
".....#baa.#cccccccccccccccccccccccccccccccccccd...",
"....##baa.#ceeeeeeeeeeeeeeeeeeeeeeeeeeeeeeeeecd...",
"...##bbaa.#ceefffffeefffeefffffffeeeeeefefefecd...",
"...#bbbbaa#cefffffeefffeefffffffeeeeeeefefefecd...",
"...#bbbbba#ceeeeeeeeeeeeeeeeeeeeeeeeeeeeeeeeecd...",
"...aaaaaaa#cccccccccccccccccccccccccccccccccccd...",
"..........#ccffffffffffffffffffffffffffffffcccd...",
"..........#ccfffgggggggggggggffffffffffffffcccd...",
"..........#ccffffffffffffffffffffffffffffffcccd...",
"..........#ccfffggggggggggfffffffffffffffffcccd...",
"..........#ccffffffffffffffffffffffffffffffcccd...",
"..........#ccfffffggggggggggffffggggfffffffcccd...",
"..........#ccffffffffffffffffffffffffffffffcccd...",
"..........#ccfffffffffggggfffffffffffffffffcccd...",
"..........#ccffffffffffffffffffffffffffffffcccd...",
"..........#ccfffffffffggggfffffffffffffffffcccd...",
"..........#ccffffffffffffffffffffffffffffffcccd...",
"..........#ccfffffffffggggggggfffffffffffffcccd...",
"..........#ccffffffffffffffffffffffffffffffcccd...",
"..........#ccfffffgggggffffffffffffffffffffcccd...",
"..........#ccffffffffffffffffffffffffffffffcccd...",
"..........#ccfffggggggggggfffffffffffffffffcccd...",
"..........#ccffffffffffffffffffffffffffffffcccd...",
"..........#cccccccccccccccccccccccccccccccccccd...",
"..........#cccccccccccccccccccccccccccccccccccd...",
"..........#cccccccccccccccccccccccccccccccccccd...",
"..........ddddddddddddddddddddddddddddddddddddd...",
"..................................................",
"..................................................",
"..................................................",
"..................................................",
"..................................................",
".................................................."};
